<?xml version="1.0" encoding="utf-8"?>
<!-- Generator: Adobe Illustrator 28.0.0, SVG Export Plug-In . SVG Version: 6.00 Build 0)  -->
<svg version="1.1" id="Слой_1" xmlns="http://www.w3.org/2000/svg" xmlns:xlink="http://www.w3.org/1999/xlink" x="0px" y="0px"
	 viewBox="0 0 1000 323" style="enable-background:new 0 0 1000 323;" xml:space="preserve">
<style type="text/css">
	.st0{fill:#1434CB;}
</style>
<path class="st0" d="M379.7,5.7L248.8,318.1h-85.4L98.9,68.8c-3.9-15.4-7.3-21-19.2-27.4C60.3,30.8,28.2,20.9,0,14.8l1.9-9.1h137.5
	c17.5,0,33.3,11.7,37.3,31.8l34,180.7L294.8,5.7L379.7,5.7L379.7,5.7z M714.4,216.1c0.3-82.4-114-87-113.2-123.8
	c0.2-11.2,10.9-23.1,34.3-26.2c11.6-1.5,43.5-2.7,79.7,14l14.2-66.2C709.8,6.8,684.8,0,653.7,0c-79.9,0-136.1,42.5-136.6,103.3
	c-0.5,45,40.1,70.1,70.7,85c31.5,15.3,42.1,25.1,41.9,38.8c-0.2,21-25.1,30.2-48.4,30.6c-40.6,0.6-64.2-11-83-19.7l-14.6,68.4
	c18.9,8.7,53.7,16.2,89.9,16.6C658.6,323,714.1,281,714.4,216.1 M925.3,318.1h74.7L934.8,5.7h-69c-15.5,0-28.6,9-34.4,22.9
	L710.1,318.1H795l16.8-46.7h103.7L925.3,318.1z M835.1,207.4l42.5-117.3l24.5,117.3H835.1z M495.1,5.7l-66.8,312.4h-80.8L414.4,5.7
	L495.1,5.7L495.1,5.7z"/>
</svg>
